<?xml version="1.0" encoding="UTF-8" standalone="no"?>
<!DOCTYPE svg PUBLIC "-//W3C//DTD SVG 1.1//EN" "http://www.w3.org/Graphics/SVG/1.1/DTD/svg11.dtd">
<svg width="100%" height="100%" viewBox="0 0 2737 3269" version="1.1" xmlns="http://www.w3.org/2000/svg" xmlns:xlink="http://www.w3.org/1999/xlink" xml:space="preserve" xmlns:serif="http://www.serif.com/" style="fill-rule:evenodd;clip-rule:evenodd;stroke-linejoin:round;stroke-miterlimit:2;">
    <g transform="matrix(1,0,0,1,-1134.54,-871.363)">
        <g transform="matrix(4.16667,0,0,4.16667,0,0)">
            <path d="M272.29,209.127L272.29,566.224L467.345,357.48L467.345,209.127L272.29,209.127Z" style="fill:rgb(218,122,56);fill-rule:nonzero;"/>
        </g>
        <g transform="matrix(4.16667,0,0,4.16667,0,0)">
            <path d="M541.298,984.039L346.243,984.039L443.771,791.182L541.298,984.039Z" style="fill:rgb(80,125,87);fill-rule:nonzero;"/>
        </g>
        <g transform="matrix(4.16667,0,0,4.16667,0,0)">
            <path d="M490.971,458.433L674.429,458.433L536.762,233.15C688.825,233.15 812.095,339.502 812.095,470.695C812.095,564.097 749.614,644.909 658.744,683.715L490.971,458.433Z" style="fill:rgb(192,38,43);fill-rule:nonzero;"/>
        </g>
        <g transform="matrix(4.16667,0,0,4.16667,0,0)">
            <path d="M560.477,815.171L653.609,959.127L895.917,959.127L785.636,815.17L638.384,815.17L560.477,815.171Z" style="fill:rgb(67,102,134);fill-rule:nonzero;"/>
        </g>
        <g transform="matrix(4.16667,0,0,4.16667,0,0)">
            <path d="M295.916,749.981L490.971,536.611L490.971,738.545L295.916,749.981Z" style="fill:rgb(229,191,80);fill-rule:nonzero;"/>
        </g>
        <g transform="matrix(4.16667,0,0,4.16667,0,0)">
            <path d="M305.416,243.539L305.416,567.055L481.472,378.644L481.472,243.539L305.416,243.539ZM295.914,600.637C294.744,600.637 293.562,600.42 292.43,599.974C288.801,598.542 286.416,595.037 286.416,591.136L286.416,234.039C286.416,228.793 290.67,224.539 295.916,224.539L490.972,224.539C496.218,224.539 500.472,228.793 500.472,234.039L500.472,382.391C500.472,384.8 499.557,387.118 497.913,388.877L302.858,597.622C301.025,599.584 298.496,600.637 295.914,600.637Z" style="fill:rgb(72,44,40);fill-rule:nonzero;"/>
        </g>
        <g transform="matrix(4.16667,0,0,4.16667,0,0)">
            <path d="M311.366,974.539L475.522,974.539L393.444,812.234L311.366,974.539ZM490.972,993.539L295.916,993.539C292.616,993.539 289.553,991.826 287.824,989.015C286.095,986.204 285.95,982.697 287.439,979.752L384.966,786.895C386.583,783.697 389.861,781.682 393.444,781.682C397.026,781.682 400.305,783.697 401.921,786.895L499.449,979.752C500.938,982.697 500.793,986.204 499.064,989.015C497.335,991.826 494.272,993.539 490.972,993.539Z" style="fill:rgb(72,44,40);fill-rule:nonzero;"/>
        </g>
        <g transform="matrix(4.16667,0,0,4.16667,0,0)">
            <path d="M541.298,468.823L693.243,672.852C780.272,633.039 834.002,556.52 834.002,471.585C834.002,350.806 723.979,251.656 585.397,244.013L713.943,454.369C715.735,457.301 715.803,460.972 714.122,463.969C712.441,466.967 709.273,468.823 705.836,468.823L541.298,468.823ZM690.155,694.106C687.222,694.106 684.369,692.745 682.532,690.279L514.758,464.997C512.612,462.115 512.276,458.27 513.888,455.06C515.5,451.849 518.786,449.823 522.378,449.823L688.898,449.823L560.062,238.993C558.271,236.061 558.202,232.389 559.883,229.392C561.564,226.395 564.732,224.539 568.169,224.539C643.991,224.539 715.337,250.068 769.065,296.422C823.193,343.121 853.002,405.328 853.002,471.585C853.002,518.756 837.634,564.611 808.559,604.193C780.428,642.49 740.774,673.317 693.881,693.341C692.674,693.858 691.407,694.106 690.155,694.106Z" style="fill:rgb(72,44,40);fill-rule:nonzero;"/>
        </g>
        <g transform="matrix(4.16667,0,0,4.16667,0,0)">
            <path d="M919.543,993.539L677.236,993.539C674.013,993.539 671.01,991.905 669.259,989.199L482.996,701.287C482.001,699.75 481.472,697.958 481.472,696.127L481.472,518.664L305.416,711.249L305.416,833.325L385.163,691.472C386.845,688.48 390.011,686.627 393.444,686.627C396.877,686.627 400.042,688.48 401.725,691.472L499.253,864.955C501.824,869.529 500.201,875.32 495.627,877.892C491.054,880.463 485.262,878.839 482.69,874.266L393.444,715.513L304.198,874.266C302.08,878.031 297.688,879.892 293.51,878.801C289.331,877.706 286.416,873.931 286.416,869.611L286.416,707.562C286.416,705.19 287.304,702.903 288.905,701.152L483.96,487.782C486.604,484.888 490.756,483.918 494.41,485.336C498.064,486.755 500.472,490.272 500.472,494.192L500.472,693.323L682.405,974.539L900.298,974.539L804.574,849.582L662.01,849.582C658.79,849.582 655.79,847.952 654.039,845.251C652.288,842.55 652.024,839.146 653.336,836.206L707.587,714.808C709.728,710.018 715.347,707.869 720.137,710.01C724.927,712.152 727.075,717.77 724.935,722.56L676.661,830.582L809.263,830.582C812.219,830.582 815.007,831.958 816.804,834.305L927.084,978.262C929.284,981.132 929.662,985.002 928.062,988.244C926.461,991.487 923.16,993.539 919.543,993.539Z" style="fill:rgb(72,44,40);fill-rule:nonzero;"/>
        </g>
    </g>
</svg>
