<?xml version="1.0" encoding="UTF-8" standalone="no"?>
<!DOCTYPE svg PUBLIC "-//W3C//DTD SVG 1.1//EN" "http://www.w3.org/Graphics/SVG/1.1/DTD/svg11.dtd">
<svg width="100%" height="100%" viewBox="0 0 13898 3309" version="1.1" xmlns="http://www.w3.org/2000/svg" xmlns:xlink="http://www.w3.org/1999/xlink" xml:space="preserve" xmlns:serif="http://www.serif.com/" style="fill-rule:evenodd;clip-rule:evenodd;stroke-linejoin:round;stroke-miterlimit:2;">
    <g transform="matrix(1,0,0,1,-1811.35,-839.013)">
        <g transform="matrix(4.16667,0,0,4.16667,8333.33,0)">
            <g id="Y" transform="matrix(1,0,0,1,-931.87,-5.54848)">
                <g transform="matrix(1,0,0,1,1719.33,-1.3335)">
                    <path d="M702.022,208.245L463.183,955.985L937.573,208.245L702.022,208.245Z" style="fill:rgb(218,122,56);fill-rule:nonzero;"/>
                </g>
                <g transform="matrix(1,0,0,1,1719.33,-1.3335)">
                    <path d="M552.594,951.96L693.244,951.96L693.244,758.175L552.594,951.96Z" style="fill:rgb(67,102,134);fill-rule:nonzero;"/>
                </g>
                <g transform="matrix(1,0,0,1,1719.33,-1.3335)">
                    <path d="M284.95,237.181L525.955,237.181L352.845,334.626L284.95,237.181Z" style="fill:rgb(80,125,87);fill-rule:nonzero;"/>
                </g>
                <g transform="matrix(1,0,0,1,1719.33,-1.3335)">
                    <path d="M517,341.131L284.95,340.827L447.977,574.808L517.083,341.25L517,341.131Z" style="fill:rgb(229,191,80);fill-rule:nonzero;"/>
                </g>
                <g transform="matrix(1,0,0,1,1719.33,-1.3335)">
                    <path d="M576.178,493.531L527.093,422.756L457.987,656.314L507.14,726.86L576.178,493.531Z" style="fill:rgb(192,38,43);fill-rule:nonzero;"/>
                </g>
                <g transform="matrix(1,0,0,1,1719.33,-1.3335)">
                    <path d="M338.758,379.287L529.221,652.644L591.359,442.632L547.617,379.561L338.758,379.287ZM532.723,683.789C529.648,683.789 526.723,682.294 524.93,679.72L312.75,375.194C310.725,372.289 310.485,368.499 312.126,365.361C313.764,362.228 317.008,360.263 320.544,360.263L320.556,360.263L552.607,360.568C555.717,360.571 558.628,362.098 560.4,364.653L609.568,435.546C611.209,437.913 611.688,440.895 610.871,443.656L541.834,676.984C540.798,680.486 537.846,683.084 534.242,683.667C533.735,683.749 533.226,683.789 532.723,683.789Z" style="fill:rgb(250,250,250);fill-rule:nonzero;"/>
                </g>
                <g transform="matrix(1,0,0,1,1719.33,-1.3335)">
                    <path d="M744.553,246.681L530.269,917.549L955.889,246.681L744.553,246.681ZM498.771,994.422C497.419,994.422 496.05,994.133 494.754,993.527C490.425,991.504 488.273,986.581 489.727,982.03L728.565,234.29C729.823,230.353 733.482,227.681 737.615,227.681L973.167,227.681C976.632,227.681 979.822,229.567 981.491,232.604C983.161,235.64 983.045,239.344 981.188,242.27L506.799,990.01C505.005,992.837 501.936,994.422 498.771,994.422Z" style="fill:rgb(250,250,250);fill-rule:nonzero;"/>
                </g>
                <g transform="matrix(1,0,0,1,1719.33,-1.3335)">
                    <path d="M571.228,975.421L683.744,975.421L683.744,820.398L571.228,975.421ZM693.244,994.421L552.594,994.421C549.022,994.421 545.753,992.418 544.131,989.236C542.508,986.054 542.808,982.231 544.905,979.341L685.555,785.556C687.972,782.224 692.261,780.827 696.177,782.1C700.092,783.371 702.744,787.02 702.744,791.136L702.744,984.921C702.744,990.168 698.491,994.421 693.244,994.421Z" style="fill:rgb(250,250,250);fill-rule:nonzero;"/>
                </g>
                <g transform="matrix(1,0,0,1,1719.33,-1.3335)">
                    <path d="M528.013,344.126L296.062,344.126C291.743,344.126 287.967,341.212 286.872,337.035C285.777,332.857 287.638,328.466 291.402,326.348L432.928,246.681L228.167,246.681C222.92,246.681 218.667,242.427 218.667,237.181C218.667,231.934 222.92,227.681 228.167,227.681L469.172,227.681C473.49,227.681 477.266,230.594 478.361,234.772C479.456,238.95 477.595,243.34 473.832,245.459L332.305,325.126L528.013,325.126C533.259,325.126 537.513,329.379 537.513,334.626C537.513,339.873 533.259,344.126 528.013,344.126Z" style="fill:rgb(250,250,250);fill-rule:nonzero;"/>
                </g>
            </g>
        </g>
        <g transform="matrix(4.16667,0,0,4.16667,8333.33,0)">
            <g id="A" transform="matrix(1,0,0,1,-596.98,-27.794)">
                <g transform="matrix(1,0,0,1,719.015,35.072)">
                    <path d="M481.242,194.085L318.755,616.55L701.635,194.085L481.242,194.085Z" style="fill:rgb(218,122,56);fill-rule:nonzero;"/>
                </g>
                <g transform="matrix(1,0,0,1,719.015,35.072)">
                    <path d="M701.635,857.518L908.63,857.518L925.453,902.194L717.655,902.194L701.635,857.518Z" style="fill:rgb(192,38,43);fill-rule:nonzero;"/>
                </g>
                <g transform="matrix(1,0,0,1,719.015,35.072)">
                    <path d="M698.143,227.133L631.744,424.352L731.84,317.763L698.143,227.133Z" style="fill:rgb(80,125,87);fill-rule:nonzero;"/>
                </g>
                <g transform="matrix(1,0,0,1,719.015,35.072)">
                    <path d="M316.871,697.009L886.712,697.009L935.849,827.5L266.682,827.5L316.871,697.009Z" style="fill:rgb(67,102,134);fill-rule:nonzero;"/>
                </g>
                <g transform="matrix(1,0,0,1,719.015,35.072)">
                    <path d="M397.502,762.254C397.502,780.7 382.549,795.653 364.104,795.653C345.658,795.653 330.705,780.7 330.705,762.254C330.705,743.809 345.658,728.856 364.104,728.856C382.549,728.856 397.502,743.809 397.502,762.254Z" style="fill:rgb(192,38,43);fill-rule:nonzero;"/>
                </g>
                <g transform="matrix(1,0,0,1,719.015,35.072)">
                    <path d="M516.388,762.254C516.388,780.7 501.435,795.653 482.989,795.653C464.544,795.653 449.591,780.7 449.591,762.254C449.591,743.809 464.544,728.856 482.989,728.856C501.435,728.856 516.388,743.809 516.388,762.254Z" style="fill:rgb(192,38,43);fill-rule:nonzero;"/>
                </g>
                <g transform="matrix(1,0,0,1,719.015,35.072)">
                    <path d="M635.273,762.254C635.273,780.7 620.32,795.653 601.874,795.653C583.429,795.653 568.476,780.7 568.476,762.254C568.476,743.809 583.429,728.856 601.874,728.856C620.32,728.856 635.273,743.809 635.273,762.254Z" style="fill:rgb(192,38,43);fill-rule:nonzero;"/>
                </g>
                <g transform="matrix(1,0,0,1,719.015,35.072)">
                    <path d="M754.158,762.254C754.158,780.7 739.205,795.653 720.76,795.653C702.314,795.653 687.361,780.7 687.361,762.254C687.361,743.809 702.314,728.856 720.76,728.856C739.205,728.856 754.158,743.809 754.158,762.254Z" style="fill:rgb(192,38,43);fill-rule:nonzero;"/>
                </g>
                <g transform="matrix(1,0,0,1,719.015,35.072)">
                    <path d="M873.044,762.254C873.044,780.7 858.091,795.653 839.645,795.653C821.2,795.653 806.247,780.7 806.247,762.254C806.247,743.809 821.2,728.856 839.645,728.856C858.091,728.856 873.044,743.809 873.044,762.254Z" style="fill:rgb(192,38,43);fill-rule:nonzero;"/>
                </g>
                <g transform="matrix(1,0,0,1,719.015,35.072)">
                    <path d="M600.669,398.766L536.86,600L666.889,600L600.669,398.766Z" style="fill:rgb(229,191,80);fill-rule:nonzero;"/>
                </g>
                <g transform="matrix(1,0,0,1,719.015,35.072)">
                    <path d="M751.683,317.763L681.792,519.494L784.645,405.318L751.683,317.763Z" style="fill:rgb(229,191,80);fill-rule:nonzero;"/>
                </g>
                <g transform="matrix(1,0,0,1,719.015,35.072)">
                    <path d="M784.645,405.318L717.986,608.028L817.614,492.873L784.645,405.318Z" style="fill:rgb(192,38,43);fill-rule:nonzero;"/>
                </g>
                <g transform="matrix(1,0,0,1,719.015,35.072)">
                    <path d="M233.079,984.928L283.529,857.518L281.647,984.738L233.079,984.928Z" style="fill:rgb(80,125,87);fill-rule:nonzero;"/>
                </g>
                <g transform="matrix(1,0,0,1,719.015,35.072)">
                    <path d="M332.088,984.738L384.416,857.518L382.534,984.738L332.088,984.738Z" style="fill:rgb(80,125,87);fill-rule:nonzero;"/>
                </g>
                <g transform="matrix(1,0,0,1,719.015,35.072)">
                    <path d="M728.753,930.86L936.247,930.86L953.07,975.536L745.272,975.536L728.753,930.86Z" style="fill:rgb(80,125,87);fill-rule:nonzero;"/>
                </g>
                <g transform="matrix(1,0,0,1,719.015,35.072)">
                    <path d="M323.32,706.4L880.211,706.4L922.273,818.105L280.359,818.105L323.32,706.4ZM504.044,236.525L696.797,236.525L361.933,606.009L504.044,236.525ZM266.685,836.891L935.85,836.891C938.932,836.891 941.818,835.381 943.574,832.843C945.329,830.305 945.726,827.076 944.638,824.189L895.5,693.698C894.124,690.035 890.62,687.613 886.712,687.613L759.989,687.613L821.809,503.997C823.234,499.765 821.479,495.111 817.614,492.873C813.755,490.641 808.844,491.43 805.878,494.769L735.911,573.658L788.841,416.442C790.265,412.21 788.51,407.556 784.645,405.318C780.786,403.067 775.876,403.868 772.91,407.214L702.949,486.103L755.878,328.887C757.303,324.655 755.548,320.001 751.683,317.763C747.812,315.519 742.907,316.314 739.948,319.659L670.311,398.175L726.891,230.129C726.951,229.95 726.91,229.768 726.959,229.587C727.194,228.731 727.302,227.863 727.287,226.973C727.282,226.722 727.324,226.475 727.3,226.227C727.204,225.242 726.987,224.264 726.573,223.328C726.541,223.255 726.483,223.203 726.448,223.131C726.341,222.903 726.177,222.718 726.051,222.5C725.621,221.753 725.117,221.081 724.515,220.491C724.28,220.258 724.039,220.053 723.778,219.844C723.044,219.261 722.245,218.794 721.37,218.451C721.227,218.396 721.13,218.278 720.984,218.228C720.94,218.214 720.896,218.226 720.853,218.213C719.939,217.919 718.981,217.739 717.987,217.739L497.592,217.739C493.703,217.739 490.223,220.13 488.823,223.762L326.335,646.23C324.715,650.45 326.329,655.226 330.182,657.598C331.705,658.54 333.411,658.993 335.099,658.993C337.679,658.993 340.23,657.935 342.064,655.904L694.723,266.785L637.746,436.011C636.321,440.243 638.076,444.897 641.941,447.135C645.819,449.392 650.723,448.585 653.677,445.24L723.313,366.723L670.384,523.939C668.959,528.171 670.715,532.825 674.579,535.063C678.469,537.314 683.355,536.519 686.315,533.167L756.276,454.278L703.347,611.494C701.922,615.726 703.677,620.38 707.542,622.618C711.419,624.881 716.317,624.074 719.277,620.722L789.244,541.833L740.162,687.613L316.869,687.613C312.979,687.613 309.499,690.004 308.099,693.637L257.915,824.128C256.808,827.015 257.187,830.262 258.943,832.818C260.691,835.368 263.591,836.891 266.685,836.891Z" style="fill:rgb(250,250,250);fill-rule:nonzero;"/>
                </g>
                <g transform="matrix(1,0,0,1,719.015,35.072)">
                    <path d="M790.339,966.141L780.768,940.255L968.268,940.255L978.016,966.141L790.339,966.141ZM1000.38,972.226L983.556,927.553C982.18,923.89 978.676,921.468 974.768,921.468L767.277,921.468C764.201,921.468 761.327,922.972 759.572,925.492C757.811,928.018 757.401,931.234 758.465,934.121L774.983,978.794C776.347,982.482 779.863,984.928 783.795,984.928L991.592,984.928C994.674,984.928 997.561,983.417 999.316,980.879C1001.07,978.342 1001.47,975.106 1000.38,972.226Z" style="fill:rgb(250,250,250);fill-rule:nonzero;"/>
                </g>
                <g transform="matrix(1,0,0,1,719.015,35.072)">
                    <path d="M762.789,892.799L753.505,866.912L940.65,866.912L950.398,892.799L762.789,892.799ZM971.699,907.537C973.454,904.999 973.851,901.764 972.763,898.884L955.939,854.21C954.563,850.547 951.059,848.125 947.151,848.125L740.155,848.125C737.098,848.125 734.236,849.611 732.474,852.113C730.713,854.614 730.279,857.812 731.313,860.693L747.335,905.366C748.674,909.096 752.215,911.585 756.178,911.585L963.975,911.585C967.057,911.585 969.943,910.075 971.699,907.537Z" style="fill:rgb(250,250,250);fill-rule:nonzero;"/>
                </g>
                <g transform="matrix(1,0,0,1,719.015,35.072)">
                    <path d="M465.657,848.884C460.881,846.81 455.365,849.055 453.329,853.825L420.911,929.663L420.911,857.519C420.911,853.054 417.773,849.214 413.401,848.315C409.047,847.416 404.637,849.715 402.882,853.825L370.47,929.656L370.47,857.519C370.47,853.054 367.333,849.214 362.961,848.315C358.625,847.434 354.191,849.715 352.442,853.825L320.024,929.663L320.024,857.519C320.024,853.054 316.887,849.214 312.514,848.315C308.136,847.416 303.745,849.715 301.996,853.825L269.584,929.656L269.584,857.519C269.584,853.054 266.447,849.214 262.074,848.315C257.751,847.434 253.311,849.715 251.556,853.825L201.109,971.841C199.067,976.611 201.28,982.133 206.051,984.17C207.255,984.689 208.509,984.928 209.738,984.928C213.389,984.928 216.857,982.794 218.379,979.228L250.797,903.391L250.797,975.535C250.797,979.999 253.934,983.839 258.307,984.738C262.68,985.619 267.077,983.332 268.826,979.228L301.237,903.397L301.237,975.535C301.237,979.999 304.375,983.839 308.747,984.738C313.077,985.625 317.505,983.338 319.266,979.228L351.684,903.391L351.684,975.535C351.684,979.999 354.821,983.839 359.194,984.738C363.548,985.619 367.957,983.332 369.712,979.228L402.124,903.397L402.124,975.535C402.124,979.999 405.261,983.839 409.634,984.738C413.951,985.625 418.397,983.338 420.152,979.228L470.599,861.212C472.641,856.442 470.427,850.92 465.657,848.884Z" style="fill:rgb(250,250,250);fill-rule:nonzero;"/>
                </g>
                <g transform="matrix(1,0,0,1,719.015,35.072)">
                    <path d="M600.833,478.917L653.909,640.206L549.69,640.206L600.833,478.917ZM666.886,658.993C669.901,658.993 672.727,657.55 674.494,655.109C676.261,652.663 676.75,649.526 675.809,646.664L609.591,445.429C608.325,441.576 604.723,438.971 600.668,438.971L600.619,438.971C596.54,438.996 592.944,441.644 591.715,445.527L527.907,646.762C527.001,649.618 527.509,652.731 529.283,655.146C531.05,657.562 533.863,658.993 536.86,658.993L666.886,658.993Z" style="fill:rgb(250,250,250);fill-rule:nonzero;"/>
                </g>
            </g>
        </g>
        <g transform="matrix(4.16667,0,0,4.16667,8333.33,0)">
            <g id="L" transform="matrix(1,0,0,1,-267.022,0.506981)">
                <g transform="matrix(1,0,0,1,-320.667,-1.33298)">
                    <path d="M611.608,562.349L611.608,775.146L846.153,775.146L416.153,938.118L611.608,562.349Z" style="fill:rgb(192,38,43);fill-rule:nonzero;"/>
                </g>
                <g transform="matrix(1,0,0,1,-320.667,-1.33298)">
                    <path d="M785.18,852.559L785.18,959.258L495.933,959.283L785.18,852.559Z" style="fill:rgb(67,102,134);fill-rule:nonzero;"/>
                </g>
                <g transform="matrix(1,0,0,1,-320.667,-1.33298)">
                    <path d="M371.156,663.848L566.611,446.242L371.156,822.01L371.156,663.848Z" style="fill:rgb(80,125,87);fill-rule:nonzero;"/>
                </g>
                <g transform="matrix(1,0,0,1,-320.667,-1.33298)">
                    <path d="M355.18,506.617L550.635,289.011L355.18,664.779L355.18,506.617Z" style="fill:rgb(229,191,80);fill-rule:nonzero;"/>
                </g>
                <g transform="matrix(1,0,0,1,-320.667,-1.33298)">
                    <path d="M550.635,209.634L355.18,427.241L355.18,210.089L550.635,209.634Z" style="fill:rgb(218,122,56);fill-rule:nonzero;"/>
                </g>
                <g transform="matrix(1,0,0,1,-320.667,-1.33298)">
                    <path d="M557.111,646.591L391.075,965.799L749.285,830.036L566.611,830.036C561.364,830.036 557.111,825.783 557.111,820.536L557.111,646.591ZM371.158,993.008C368.496,993.009 365.894,991.888 364.056,989.819C361.438,986.875 360.91,982.62 362.727,979.124L558.183,603.355C560.203,599.472 564.616,597.471 568.867,598.511C573.12,599.551 576.111,603.362 576.111,607.739L576.111,811.036L801.156,811.036C805.743,811.036 809.674,814.313 810.5,818.825C811.327,823.336 808.812,827.794 804.523,829.42L374.522,992.392C373.426,992.807 372.286,993.008 371.158,993.008Z" style="fill:rgb(250,250,250);fill-rule:nonzero;"/>
                </g>
                <g transform="matrix(1,0,0,1,-320.667,-1.33298)">
                    <path d="M791.656,890.439L565.113,974.027L791.656,974.009L791.656,890.439ZM511.91,993.032C507.308,993.032 503.367,989.733 502.557,985.203C501.748,980.672 504.303,976.213 508.621,974.619L797.868,867.895C800.78,866.82 804.039,867.238 806.587,869.015C809.136,870.791 810.656,873.702 810.656,876.809L810.656,983.508C810.656,988.754 806.403,993.008 801.157,993.008L511.91,993.032Z" style="fill:rgb(250,250,250);fill-rule:nonzero;"/>
                </g>
                <g transform="matrix(1,0,0,1,-320.667,-1.33298)">
                    <path d="M371.148,868.395C369.671,868.395 368.173,868.05 366.772,867.321C362.117,864.9 360.307,859.164 362.727,854.51L523.601,545.227L378.224,707.08C375.026,710.638 369.68,711.267 365.747,708.541C361.813,705.817 360.519,700.593 362.727,696.348L523.601,387.065L378.224,548.918C374.717,552.822 368.711,553.144 364.808,549.637C360.904,546.131 360.582,540.125 364.088,536.222L559.543,318.615C562.74,315.056 568.086,314.43 572.019,317.153C575.953,319.878 577.247,325.103 575.039,329.347L414.166,638.63L559.543,476.777C562.74,473.218 568.086,472.591 572.019,475.315C575.953,478.04 577.247,483.265 575.039,487.509L379.584,863.277C377.891,866.531 374.578,868.395 371.148,868.395Z" style="fill:rgb(250,250,250);fill-rule:nonzero;"/>
                </g>
                <g transform="matrix(1,0,0,1,-320.667,-1.33298)">
                    <path d="M380.656,243.817L380.656,426.697L545.264,243.434L380.656,243.817ZM371.154,460.991C370.014,460.991 368.863,460.785 367.757,460.361C364.082,458.953 361.656,455.425 361.656,451.49L361.656,234.339C361.656,229.101 365.895,224.851 371.134,224.839L566.589,224.384L566.611,224.384C570.356,224.384 573.753,226.584 575.283,230.004C576.815,233.431 576.187,237.439 573.678,240.232L378.223,457.838C376.386,459.884 373.799,460.991 371.154,460.991Z" style="fill:rgb(250,250,250);fill-rule:nonzero;"/>
                </g>
            </g>
        </g>
        <g transform="matrix(4.16667,0,0,4.16667,8333.33,0)">
            <g id="E">
                <g transform="matrix(1,0,0,1,-1184.8,7.47849)">
                    <path d="M359.637,199.202L359.637,578.606L526.09,199.202L359.637,199.202Z" style="fill:rgb(218,122,56);fill-rule:nonzero;"/>
                </g>
                <g transform="matrix(1,0,0,1,-1184.8,7.47849)">
                    <path d="M730.506,269.056L733.014,432.645L820.052,269.056L730.506,269.056Z" style="fill:rgb(192,38,43);fill-rule:nonzero;"/>
                </g>
                <g transform="matrix(1,0,0,1,-1184.8,7.47849)">
                    <path d="M577.478,516.498L381.281,934.546L381.281,978.527L577.478,978.527L577.478,516.498Z" style="fill:rgb(67,102,134);fill-rule:nonzero;"/>
                </g>
                <g transform="matrix(1,0,0,1,-1184.8,7.47849)">
                    <rect x="754.462" y="588.793" width="43.528" height="163.59" style="fill:rgb(80,125,87);fill-rule:nonzero;"/>
                </g>
                <g transform="matrix(1,0,0,1,-1184.8,7.47849)">
                    <rect x="638.267" y="491.561" width="43.529" height="163.589" style="fill:rgb(192,38,43);fill-rule:nonzero;"/>
                </g>
                <g transform="matrix(1,0,0,1,-1184.8,7.47849)">
                    <path d="M797.99,770.376L797.99,933.966L708.698,933.966L797.99,770.376Z" style="fill:rgb(229,191,80);fill-rule:nonzero;"/>
                </g>
                <g transform="matrix(1,0,0,1,-1184.8,7.47849)">
                    <path d="M706.748,790L613.315,953.59L613.315,790L706.748,790Z" style="fill:rgb(229,191,80);fill-rule:nonzero;"/>
                </g>
                <g transform="matrix(1,0,0,1,-1184.8,7.47849)">
                    <path d="M390.781,233.639L390.781,558.244L533.193,233.639L390.781,233.639ZM381.285,613.045C380.639,613.045 379.985,612.979 379.332,612.842C374.932,611.919 371.781,608.039 371.781,603.544L371.781,224.139C371.781,218.892 376.035,214.639 381.281,214.639L547.734,214.639C550.942,214.639 553.933,216.258 555.688,218.943C557.442,221.629 557.723,225.018 556.434,227.956L389.981,607.361C388.443,610.866 384.992,613.045 381.285,613.045Z" style="fill:rgb(250,250,250);fill-rule:nonzero;"/>
                </g>
                <g transform="matrix(1,0,0,1,-1184.8,7.47849)">
                    <path d="M381.275,786.33C379.922,786.33 378.547,786.04 377.241,785.427C372.493,783.196 370.452,777.537 372.683,772.788L632.361,220.099C634.261,216.057 638.719,213.883 643.074,214.877C647.428,215.871 650.503,219.764 650.46,224.231L649.241,350.505L722.206,219.516C724.298,215.76 728.651,213.873 732.823,214.926C736.993,215.975 739.938,219.694 740.005,223.993L741.948,350.712L811.666,219.677C814.13,215.044 819.883,213.288 824.514,215.752C829.146,218.217 830.904,223.97 828.439,228.601L741.401,392.19C739.365,396.015 734.998,397.976 730.786,396.962C726.573,395.946 723.582,392.206 723.515,387.873L721.55,259.738L647.68,392.35C645.567,396.145 641.148,398.023 636.949,396.91C632.75,395.798 629.84,391.979 629.881,387.636L631.04,267.592L389.88,780.868C388.262,784.311 384.842,786.33 381.275,786.33Z" style="fill:rgb(250,250,250);fill-rule:nonzero;"/>
                </g>
                <g transform="matrix(1,0,0,1,-1184.8,7.47849)">
                    <path d="M390.781,969.028L567.978,969.028L567.978,559.101L390.781,936.664L390.781,969.028ZM577.478,988.028L381.281,988.028C376.035,988.028 371.781,983.775 371.781,978.528L371.781,934.546C371.781,933.151 372.089,931.773 372.681,930.51L568.878,512.462C570.769,508.434 575.205,506.262 579.546,507.226C583.889,508.195 586.978,512.048 586.978,516.498L586.978,978.528C586.978,983.775 582.725,988.028 577.478,988.028Z" style="fill:rgb(250,250,250);fill-rule:nonzero;"/>
                </g>
                <g transform="matrix(1,0,0,1,-1184.8,7.47849)">
                    <path d="M763.963,670.588L788.491,670.588L788.491,525.998L763.963,525.998L763.963,670.588ZM797.991,689.588L754.463,689.588C749.215,689.588 744.963,685.335 744.963,680.088L744.963,516.498C744.963,511.252 749.215,506.998 754.463,506.998L797.991,506.998C803.238,506.998 807.491,511.252 807.491,516.498L807.491,680.088C807.491,685.335 803.238,689.588 797.991,689.588Z" style="fill:rgb(250,250,250);fill-rule:nonzero;"/>
                </g>
                <g transform="matrix(1,0,0,1,-1184.8,7.47849)">
                    <path d="M669.412,670.588L693.94,670.588L693.94,525.998L669.412,525.998L669.412,670.588ZM703.44,689.588L659.912,689.588C654.665,689.588 650.412,685.335 650.412,680.088L650.412,516.498C650.412,511.252 654.665,506.998 659.912,506.998L703.44,506.998C708.687,506.998 712.94,511.252 712.94,516.498L712.94,680.088C712.94,685.335 708.687,689.588 703.44,689.588Z" style="fill:rgb(250,250,250);fill-rule:nonzero;"/>
                </g>
                <g transform="matrix(1,0,0,1,-1184.8,7.47849)">
                    <path d="M724.707,969.028L788.491,969.028L788.491,852.171L724.707,969.028ZM797.991,988.028L708.698,988.028C705.344,988.028 702.24,986.26 700.528,983.376C698.817,980.492 698.753,976.919 700.359,973.976L789.652,810.386C791.732,806.574 796.131,804.66 800.339,805.733C804.547,806.806 807.491,810.596 807.491,814.938L807.491,978.528C807.491,983.775 803.238,988.028 797.991,988.028Z" style="fill:rgb(250,250,250);fill-rule:nonzero;"/>
                </g>
                <g transform="matrix(1,0,0,1,-1184.8,7.47849)">
                    <path d="M644.46,824.438L644.46,942.74L712.026,824.438L644.46,824.438ZM634.961,988.029C634.151,988.029 633.333,987.925 632.522,987.709C628.358,986.605 625.46,982.835 625.46,978.528L625.46,814.938C625.46,809.691 629.713,805.438 634.96,805.438L728.392,805.438C731.778,805.438 734.909,807.24 736.608,810.168C738.308,813.097 738.321,816.709 736.641,819.65L643.209,983.24C641.488,986.252 638.308,988.029 634.961,988.029Z" style="fill:rgb(250,250,250);fill-rule:nonzero;"/>
                </g>
            </g>
        </g>
        <g transform="matrix(4.16667,0,0,4.16667,8333.33,0)">
            <g id="R" transform="matrix(1,0,0,1,14.725,3.30151)">
                <g transform="matrix(1,0,0,1,-1852.29,-1.33301)">
                    <path d="M272.29,209.127L272.29,566.224L467.345,357.48L467.345,209.127L272.29,209.127Z" style="fill:rgb(218,122,56);fill-rule:nonzero;"/>
                </g>
                <g transform="matrix(1,0,0,1,-1852.29,-1.33301)">
                    <path d="M541.298,984.039L346.243,984.039L443.771,791.182L541.298,984.039Z" style="fill:rgb(80,125,87);fill-rule:nonzero;"/>
                </g>
                <g transform="matrix(1,0,0,1,-1852.29,-1.33301)">
                    <path d="M490.971,458.433L674.429,458.433L536.762,233.15C688.825,233.15 812.095,339.502 812.095,470.695C812.095,564.097 749.614,644.909 658.744,683.715L490.971,458.433Z" style="fill:rgb(192,38,43);fill-rule:nonzero;"/>
                </g>
                <g transform="matrix(1,0,0,1,-1852.29,-1.33301)">
                    <path d="M560.477,815.171L653.609,959.127L895.917,959.127L785.636,815.17L638.384,815.17L560.477,815.171Z" style="fill:rgb(67,102,134);fill-rule:nonzero;"/>
                </g>
                <g transform="matrix(1,0,0,1,-1852.29,-1.33301)">
                    <path d="M295.916,749.981L490.971,536.611L490.971,738.545L295.916,749.981Z" style="fill:rgb(229,191,80);fill-rule:nonzero;"/>
                </g>
                <g transform="matrix(1,0,0,1,-1852.29,-1.33301)">
                    <path d="M305.416,243.539L305.416,567.055L481.472,378.644L481.472,243.539L305.416,243.539ZM295.914,600.637C294.744,600.637 293.562,600.42 292.43,599.974C288.801,598.542 286.416,595.037 286.416,591.136L286.416,234.039C286.416,228.793 290.67,224.539 295.916,224.539L490.972,224.539C496.218,224.539 500.472,228.793 500.472,234.039L500.472,382.391C500.472,384.8 499.557,387.118 497.913,388.877L302.858,597.622C301.025,599.584 298.496,600.637 295.914,600.637Z" style="fill:rgb(250,250,250);fill-rule:nonzero;"/>
                </g>
                <g transform="matrix(1,0,0,1,-1852.29,-1.33301)">
                    <path d="M311.366,974.539L475.522,974.539L393.444,812.234L311.366,974.539ZM490.972,993.539L295.916,993.539C292.616,993.539 289.553,991.826 287.824,989.015C286.095,986.204 285.95,982.697 287.439,979.752L384.966,786.895C386.583,783.697 389.861,781.682 393.444,781.682C397.026,781.682 400.305,783.697 401.921,786.895L499.449,979.752C500.938,982.697 500.793,986.204 499.064,989.015C497.335,991.826 494.272,993.539 490.972,993.539Z" style="fill:rgb(250,250,250);fill-rule:nonzero;"/>
                </g>
                <g transform="matrix(1,0,0,1,-1852.29,-1.33301)">
                    <path d="M541.298,468.823L693.243,672.852C780.272,633.039 834.002,556.52 834.002,471.585C834.002,350.806 723.979,251.656 585.397,244.013L713.943,454.369C715.735,457.301 715.803,460.972 714.122,463.969C712.441,466.967 709.273,468.823 705.836,468.823L541.298,468.823ZM690.155,694.106C687.222,694.106 684.369,692.745 682.532,690.279L514.758,464.997C512.612,462.115 512.276,458.27 513.888,455.06C515.5,451.849 518.786,449.823 522.378,449.823L688.898,449.823L560.062,238.993C558.271,236.061 558.202,232.389 559.883,229.392C561.564,226.395 564.732,224.539 568.169,224.539C643.991,224.539 715.337,250.068 769.065,296.422C823.193,343.121 853.002,405.328 853.002,471.585C853.002,518.756 837.634,564.611 808.559,604.193C780.428,642.49 740.774,673.317 693.881,693.341C692.674,693.858 691.407,694.106 690.155,694.106Z" style="fill:rgb(250,250,250);fill-rule:nonzero;"/>
                </g>
                <g transform="matrix(1,0,0,1,-1852.29,-1.33301)">
                    <path d="M919.543,993.539L677.236,993.539C674.013,993.539 671.01,991.905 669.259,989.199L482.996,701.287C482.001,699.75 481.472,697.958 481.472,696.127L481.472,518.664L305.416,711.249L305.416,833.325L385.163,691.472C386.845,688.48 390.011,686.627 393.444,686.627C396.877,686.627 400.042,688.48 401.725,691.472L499.253,864.955C501.824,869.529 500.201,875.32 495.627,877.892C491.054,880.463 485.262,878.839 482.69,874.266L393.444,715.513L304.198,874.266C302.08,878.031 297.688,879.892 293.51,878.801C289.331,877.706 286.416,873.931 286.416,869.611L286.416,707.562C286.416,705.19 287.304,702.903 288.905,701.152L483.96,487.782C486.604,484.888 490.756,483.918 494.41,485.336C498.064,486.755 500.472,490.272 500.472,494.192L500.472,693.323L682.405,974.539L900.298,974.539L804.574,849.582L662.01,849.582C658.79,849.582 655.79,847.952 654.039,845.251C652.288,842.55 652.024,839.146 653.336,836.206L707.587,714.808C709.728,710.018 715.347,707.869 720.137,710.01C724.927,712.152 727.075,717.77 724.935,722.56L676.661,830.582L809.263,830.582C812.219,830.582 815.007,831.958 816.804,834.305L927.084,978.262C929.284,981.132 929.662,985.002 928.062,988.244C926.461,991.487 923.16,993.539 919.543,993.539Z" style="fill:rgb(250,250,250);fill-rule:nonzero;"/>
                </g>
            </g>
        </g>
    </g>
</svg>
