<?xml version="1.0" encoding="UTF-8" standalone="no"?>
<!DOCTYPE svg PUBLIC "-//W3C//DTD SVG 1.1//EN" "http://www.w3.org/Graphics/SVG/1.1/DTD/svg11.dtd">
<svg width="100%" height="100%" viewBox="0 0 1097 1270" version="1.1" xmlns="http://www.w3.org/2000/svg" xmlns:xlink="http://www.w3.org/1999/xlink" xml:space="preserve" xmlns:serif="http://www.serif.com/" style="fill-rule:evenodd;clip-rule:evenodd;stroke-linejoin:round;stroke-miterlimit:2;">
    <g transform="matrix(1,0,0,1,-1014.59,-188.001)">
        <path d="M1029.59,309.236L1015,309.236L1014.59,309.565C1014.59,313.388 1014.69,317.189 1014.87,320.972L1029.59,309.236Z" style="fill:rgb(35,31,32);fill-rule:nonzero;"/>
        <path d="M1020.16,362.219L1086.64,309.236L1072.05,309.236L1018.23,352.13C1018.81,355.516 1019.45,358.879 1020.16,362.219Z" style="fill:rgb(35,31,32);fill-rule:nonzero;"/>
        <path d="M1030.99,399.054L1143.68,309.236L1129.09,309.236L1027.76,390.006C1028.78,393.048 1029.86,396.063 1030.99,399.054Z" style="fill:rgb(35,31,32);fill-rule:nonzero;"/>
        <path d="M1046.38,432.261L1200.73,309.236L1186.14,309.236L1042.04,424.088C1043.44,426.841 1044.88,429.565 1046.38,432.261Z" style="fill:rgb(35,31,32);fill-rule:nonzero;"/>
        <path d="M1065.81,462.242L1257.78,309.236L1243.19,309.236L1060.47,454.862C1062.21,457.352 1063.98,459.817 1065.81,462.242Z" style="fill:rgb(35,31,32);fill-rule:nonzero;"/>
        <path d="M1089.1,489.143L1314.82,309.236L1300.23,309.236L1082.79,482.547C1084.85,484.781 1086.96,486.983 1089.1,489.143Z" style="fill:rgb(35,31,32);fill-rule:nonzero;"/>
        <path d="M1116.31,512.926L1371.87,309.236L1357.28,309.236L1108.96,507.149C1111.38,509.118 1113.82,511.044 1116.31,512.926Z" style="fill:rgb(35,31,32);fill-rule:nonzero;"/>
        <path d="M1147.74,533.338L1428.91,309.236L1414.33,309.236L1139.27,528.461C1142.06,530.138 1144.89,531.766 1147.74,533.338Z" style="fill:rgb(35,31,32);fill-rule:nonzero;"/>
        <path d="M1184.16,549.781L1485.96,309.236L1471.37,309.236L1174.31,546C1177.56,547.326 1180.84,548.588 1184.16,549.781Z" style="fill:rgb(35,31,32);fill-rule:nonzero;"/>
        <path d="M1227.02,561.083L1539.28,312.208C1535.04,311.652 1530.78,311.174 1526.49,310.772L1215.32,558.785C1219.19,559.64 1223.09,560.408 1227.02,561.083Z" style="fill:rgb(35,31,32);fill-rule:nonzero;"/>
        <path d="M1024.42,756.402L1014.59,764.242L1014.59,775.87L1039.01,756.402L1024.42,756.402Z" style="fill:rgb(35,31,32);fill-rule:nonzero;"/>
        <path d="M1270.11,564.759L1279.46,564.759L1584.89,321.32C1581.22,320.328 1577.53,319.395 1573.82,318.52L1264.95,564.693C1266.67,564.728 1268.38,564.759 1270.11,564.759Z" style="fill:rgb(35,31,32);fill-rule:nonzero;"/>
        <path d="M1081.47,756.402L1014.59,809.709L1014.59,821.337L1096.06,756.402L1081.47,756.402Z" style="fill:rgb(35,31,32);fill-rule:nonzero;"/>
        <path d="M1336.51,564.759L1624.98,334.835C1621.74,333.517 1618.47,332.245 1615.18,331.022L1321.91,564.759L1336.51,564.759Z" style="fill:rgb(35,31,32);fill-rule:nonzero;"/>
        <path d="M1138.51,756.402L1014.59,855.176L1014.59,866.805L1153.1,756.402L1138.51,756.402Z" style="fill:rgb(35,31,32);fill-rule:nonzero;"/>
        <path d="M1393.55,564.759L1660.77,351.782C1657.86,350.199 1654.93,348.661 1651.98,347.159L1378.96,564.759L1393.55,564.759Z" style="fill:rgb(35,31,32);fill-rule:nonzero;"/>
        <path d="M1195.56,756.402L1014.59,900.644L1014.59,912.272L1210.15,756.402L1195.56,756.402Z" style="fill:rgb(35,31,32);fill-rule:nonzero;"/>
        <path d="M1450.6,564.759L1692.93,371.614C1690.32,369.804 1687.68,368.032 1685.02,366.292L1436.01,564.759L1450.6,564.759Z" style="fill:rgb(35,31,32);fill-rule:nonzero;"/>
        <path d="M1252.61,756.402L1014.59,946.111L1014.59,957.74L1267.2,756.402L1252.61,756.402Z" style="fill:rgb(35,31,32);fill-rule:nonzero;"/>
        <path d="M1493.69,564.759C1498.05,564.759 1502.34,565.06 1506.55,565.631L1721.9,393.99C1719.55,391.976 1717.18,389.992 1714.78,388.039L1493.05,564.759L1493.69,564.759Z" style="fill:rgb(35,31,32);fill-rule:nonzero;"/>
        <path d="M1545.48,580.068L1747.94,418.707C1745.84,416.5 1743.71,414.321 1741.55,412.169L1537.02,575.185C1539.93,576.671 1542.75,578.303 1545.48,580.068Z" style="fill:rgb(35,31,32);fill-rule:nonzero;"/>
        <path d="M1309.65,756.402L1014.59,991.579L1014.59,1003.21L1324.24,756.402L1309.65,756.402Z" style="fill:rgb(35,31,32);fill-rule:nonzero;"/>
        <path d="M1571.48,604.812L1771.15,445.674C1769.29,443.28 1767.4,440.91 1765.48,438.566L1565.83,597.689C1567.82,599.971 1569.71,602.348 1571.48,604.812Z" style="fill:rgb(35,31,32);fill-rule:nonzero;"/>
        <path d="M1366.7,756.402L1014.59,1037.05L1014.59,1048.67L1381.29,756.402L1366.7,756.402Z" style="fill:rgb(35,31,32);fill-rule:nonzero;"/>
        <path d="M1586.81,638.061L1791.58,474.86C1789.96,472.278 1788.3,469.72 1786.62,467.183L1584.01,628.668C1585.1,631.732 1586.04,634.865 1586.81,638.061Z" style="fill:rgb(35,31,32);fill-rule:nonzero;"/>
        <path d="M1423.75,756.402L1014.59,1082.51L1014.59,1094.14L1438.34,756.402L1423.75,756.402Z" style="fill:rgb(35,31,32);fill-rule:nonzero;"/>
        <path d="M1586.68,683.631L1809.13,506.333C1807.77,503.555 1806.36,500.796 1804.92,498.06L1589.03,670.13C1588.57,674.732 1587.78,679.24 1586.68,683.631Z" style="fill:rgb(35,31,32);fill-rule:nonzero;"/>
        <path d="M1493.69,756.402L1480.79,756.402L1014.59,1127.98L1014.59,1139.61L1495.41,756.38C1494.84,756.39 1494.27,756.402 1493.69,756.402Z" style="fill:rgb(35,31,32);fill-rule:nonzero;"/>
        <path d="M1820.25,531.31L1014.59,1173.45L1014.59,1185.08L1823.67,540.216C1822.57,537.228 1821.43,534.26 1820.25,531.31Z" style="fill:rgb(35,31,32);fill-rule:nonzero;"/>
        <path d="M1832.34,567.146L1015.04,1218.55C1015.25,1222.22 1015.53,1225.87 1015.9,1229.49L1834.86,576.761C1834.07,573.539 1833.22,570.334 1832.34,567.146Z" style="fill:rgb(35,31,32);fill-rule:nonzero;"/>
        <path d="M1023.19,1269.15L1270.11,1072.35L1270.11,1060.72L1020.79,1259.43C1021.53,1262.7 1022.33,1265.94 1023.19,1269.15Z" style="fill:rgb(35,31,32);fill-rule:nonzero;"/>
        <path d="M1840.75,605.907L1280.41,1052.52L1286.89,1058.97L1842.24,616.347C1841.8,612.851 1841.3,609.371 1840.75,605.907Z" style="fill:rgb(35,31,32);fill-rule:nonzero;"/>
        <path d="M1844.81,648.138L1305.77,1077.77L1312.26,1084.22L1845.03,659.593C1845.02,655.76 1844.95,651.942 1844.81,648.138Z" style="fill:rgb(35,31,32);fill-rule:nonzero;"/>
        <path d="M1035.6,1304.73L1270.11,1117.82L1270.11,1106.19L1031.99,1295.98C1033.14,1298.92 1034.35,1301.84 1035.6,1304.73Z" style="fill:rgb(35,31,32);fill-rule:nonzero;"/>
        <path d="M1843.3,694.813L1331.14,1103.01L1337.63,1109.47L1841.75,707.673C1842.35,703.408 1842.86,699.121 1843.3,694.813Z" style="fill:rgb(35,31,32);fill-rule:nonzero;"/>
        <path d="M1052.36,1336.84L1270.11,1163.29L1270.11,1151.66L1047.69,1328.93C1049.2,1331.6 1050.76,1334.23 1052.36,1336.84Z" style="fill:rgb(35,31,32);fill-rule:nonzero;"/>
        <path d="M1833.65,747.967L1356.51,1128.26L1363,1134.72L1829.27,763.09C1830.84,758.092 1832.31,753.052 1833.65,747.967Z" style="fill:rgb(35,31,32);fill-rule:nonzero;"/>
        <path d="M1073.07,1365.8L1270.11,1208.75L1270.11,1197.13L1067.42,1358.67C1069.27,1361.08 1071.14,1363.46 1073.07,1365.8Z" style="fill:rgb(35,31,32);fill-rule:nonzero;"/>
        <path d="M1097.64,1391.68L1270.11,1254.22L1270.11,1242.59L1091,1385.35C1093.18,1387.5 1095.39,1389.61 1097.64,1391.68Z" style="fill:rgb(35,31,32);fill-rule:nonzero;"/>
        <path d="M1587.91,999.149C1589.1,998.81 1590.28,998.448 1591.46,998.095L1798.58,833.012C1802.38,826.407 1805.96,819.667 1809.34,812.813L1381.87,1153.51L1388.36,1159.97L1588.9,1000.13L1587.91,999.149Z" style="fill:rgb(35,31,32);fill-rule:nonzero;"/>
        <path d="M1607.78,1018.93L1407.24,1178.76L1413.73,1185.22L1614.26,1025.39L1607.78,1018.93Z" style="fill:rgb(35,31,32);fill-rule:nonzero;"/>
        <path d="M1126.2,1414.39L1270.11,1299.69L1270.11,1288.06L1118.49,1408.9C1121.03,1410.78 1123.59,1412.61 1126.2,1414.39Z" style="fill:rgb(35,31,32);fill-rule:nonzero;"/>
        <path d="M1633.14,1044.18L1432.61,1204.01L1439.1,1210.47L1639.62,1050.64L1633.14,1044.18Z" style="fill:rgb(35,31,32);fill-rule:nonzero;"/>
        <path d="M1159.16,1433.58L1270.11,1345.16L1270.11,1333.53L1150.28,1429.04C1153.21,1430.6 1156.17,1432.13 1159.16,1433.58Z" style="fill:rgb(35,31,32);fill-rule:nonzero;"/>
        <path d="M1197.5,1448.5L1270.11,1390.62L1270.11,1379L1187.1,1445.15C1190.53,1446.34 1194,1447.45 1197.5,1448.5Z" style="fill:rgb(35,31,32);fill-rule:nonzero;"/>
        <path d="M1658.5,1069.44L1457.98,1229.26L1464.46,1235.72L1664.98,1075.9L1658.5,1069.44Z" style="fill:rgb(35,31,32);fill-rule:nonzero;"/>
        <path d="M1243.06,1457.65L1270.11,1436.09L1270.11,1424.46L1230.54,1456C1234.68,1456.65 1238.86,1457.2 1243.06,1457.65Z" style="fill:rgb(35,31,32);fill-rule:nonzero;"/>
        <path d="M1683.86,1094.69L1483.34,1254.51L1489.83,1260.97L1690.34,1101.15L1683.86,1094.69Z" style="fill:rgb(35,31,32);fill-rule:nonzero;"/>
        <path d="M1709.22,1119.95L1508.71,1279.76L1515.2,1286.21L1715.7,1126.41L1709.22,1119.95Z" style="fill:rgb(35,31,32);fill-rule:nonzero;"/>
        <path d="M1734.58,1145.2L1534.08,1305.01L1540.57,1311.46L1741.06,1151.66L1734.58,1145.2Z" style="fill:rgb(35,31,32);fill-rule:nonzero;"/>
        <path d="M1759.94,1170.46L1559.45,1330.25L1565.93,1336.71L1766.42,1176.92L1759.94,1170.46Z" style="fill:rgb(35,31,32);fill-rule:nonzero;"/>
        <path d="M1785.3,1195.71L1584.81,1355.5L1591.3,1361.96L1791.78,1202.17L1785.3,1195.71Z" style="fill:rgb(35,31,32);fill-rule:nonzero;"/>
        <path d="M1810.66,1220.97L1610.18,1380.75L1611.87,1382.43C1613.46,1384.05 1615.07,1385.63 1616.69,1387.2L1817.14,1227.43L1810.66,1220.97Z" style="fill:rgb(35,31,32);fill-rule:nonzero;"/>
        <path d="M1836.02,1246.22L1637.02,1404.83C1639.5,1406.76 1642.01,1408.64 1644.54,1410.46L1842.5,1252.68L1836.02,1246.22Z" style="fill:rgb(35,31,32);fill-rule:nonzero;"/>
        <path d="M1861.38,1271.48L1668.08,1425.54C1670.96,1427.16 1673.88,1428.71 1676.81,1430.21L1867.86,1277.94L1861.38,1271.48Z" style="fill:rgb(35,31,32);fill-rule:nonzero;"/>
        <path d="M1886.74,1296.73L1704.17,1442.24C1707.54,1443.49 1710.93,1444.67 1714.34,1445.76L1893.22,1303.19L1886.74,1296.73Z" style="fill:rgb(35,31,32);fill-rule:nonzero;"/>
        <path d="M1912.1,1321.99L1746.67,1453.84C1750.72,1454.57 1754.79,1455.21 1758.87,1455.74L1918.58,1328.45L1912.1,1321.99Z" style="fill:rgb(35,31,32);fill-rule:nonzero;"/>
        <path d="M1937.46,1347.24L1798.76,1457.79C1804.02,1457.64 1809.27,1457.33 1814.52,1456.85L1943.94,1353.7L1937.46,1347.24Z" style="fill:rgb(35,31,32);fill-rule:nonzero;"/>
        <path d="M1962.82,1372.5L1871.99,1444.89C1882.03,1441.55 1891.9,1437.57 1901.56,1432.95L1969.3,1378.95L1962.82,1372.5Z" style="fill:rgb(35,31,32);fill-rule:nonzero;"/>
        <path d="M1023.28,240.744C1023.28,387.798 1143.6,508.116 1290.66,508.116L1291.18,508.116L1291.18,240.744L1023.28,240.744Z" style="fill:rgb(255,167,170);fill-rule:nonzero;"/>
        <path d="M1641.39,962.652C1793.46,919.203 1910.43,775.491 1910.43,608.381C1910.43,406.181 1745,240.744 1542.8,240.744L1309.37,240.744L1309.37,508.116L1542.8,508.116C1597.94,508.116 1643.06,553.236 1643.06,608.381C1643.06,663.527 1597.94,708.646 1542.8,708.646L1309.37,708.646L1309.37,1008.29L1666.46,1363.71C1770.06,1468.99 1938.84,1468.99 2044.12,1363.71L1641.39,962.652Z" style="fill:rgb(254,0,9);fill-rule:nonzero;"/>
        <path d="M1668.67,935.371C1820.74,891.923 1937.71,748.21 1937.71,581.101C1937.71,378.9 1772.28,213.463 1570.08,213.463L1336.65,213.463L1336.65,480.836L1570.08,480.836C1625.22,480.836 1670.34,525.956 1670.34,581.101C1670.34,636.247 1625.22,681.366 1570.08,681.366L1336.65,681.366L1336.65,981.012L1693.74,1336.43C1797.34,1441.71 1966.12,1441.71 2071.4,1336.43L1668.67,935.371Z" style="fill:rgb(28,28,28);fill-rule:nonzero;"/>
        <path d="M1403.21,188.001L1376.66,209.159L1376.66,220.788L1417.8,188.001L1403.21,188.001Z" style="fill:rgb(63,184,227);fill-rule:nonzero;"/>
        <path d="M1460.25,188.001L1376.66,254.626L1376.66,266.255L1474.84,188.001L1460.25,188.001Z" style="fill:rgb(63,184,227);fill-rule:nonzero;"/>
        <path d="M1517.3,188.001L1376.66,300.094L1376.66,311.723L1531.89,188.001L1517.3,188.001Z" style="fill:rgb(63,184,227);fill-rule:nonzero;"/>
        <path d="M1574.34,188.001L1376.66,345.561L1376.66,357.19L1588.94,188.001L1574.34,188.001Z" style="fill:rgb(63,184,227);fill-rule:nonzero;"/>
        <path d="M1630.66,188.582L1376.66,391.028L1376.66,402.657L1644.01,189.571C1639.58,189.161 1635.13,188.832 1630.66,188.582Z" style="fill:rgb(63,184,227);fill-rule:nonzero;"/>
        <path d="M1680.01,194.721L1376.66,436.496L1376.66,448.125L1691.54,197.161C1687.71,196.289 1683.87,195.473 1680.01,194.721Z" style="fill:rgb(63,184,227);fill-rule:nonzero;"/>
        <path d="M1424.61,455.374L1733.27,209.363C1729.89,208.151 1726.49,206.983 1723.07,205.869L1410.02,455.374L1424.61,455.374Z" style="fill:rgb(63,184,227);fill-rule:nonzero;"/>
        <path d="M1481.66,455.374L1770.56,225.111C1767.53,223.629 1764.48,222.183 1761.4,220.783L1467.07,455.374L1481.66,455.374Z" style="fill:rgb(63,184,227);fill-rule:nonzero;"/>
        <path d="M1538.7,455.374L1804.18,243.786C1801.44,242.073 1798.68,240.398 1795.9,238.756L1524.11,455.374L1538.7,455.374Z" style="fill:rgb(63,184,227);fill-rule:nonzero;"/>
        <path d="M1595.75,455.374L1834.58,265.02C1832.11,263.103 1829.61,261.216 1827.09,259.361L1581.16,455.374L1595.75,455.374Z" style="fill:rgb(63,184,227);fill-rule:nonzero;"/>
        <path d="M1386.61,655.904L1376.66,663.833L1376.66,675.461L1401.2,655.904L1386.61,655.904Z" style="fill:rgb(63,184,227);fill-rule:nonzero;"/>
        <path d="M1644.92,461.655L1862.08,288.569C1859.85,286.463 1857.59,284.385 1855.31,282.334L1634.43,458.387C1638,459.287 1641.5,460.379 1644.92,461.655Z" style="fill:rgb(63,184,227);fill-rule:nonzero;"/>
        <path d="M1443.65,655.904L1376.66,709.3L1376.66,720.929L1458.24,655.904L1443.65,655.904Z" style="fill:rgb(63,184,227);fill-rule:nonzero;"/>
        <path d="M1677.25,481.354L1886.84,314.303C1884.84,312.016 1882.82,309.754 1880.76,307.518L1670.08,475.438C1672.56,477.3 1674.95,479.275 1677.25,481.354Z" style="fill:rgb(63,184,227);fill-rule:nonzero;"/>
        <path d="M1699.01,509.474L1908.93,342.165C1907.16,339.699 1905.36,337.257 1903.53,334.837L1694.39,501.53C1696.05,504.1 1697.59,506.751 1699.01,509.474Z" style="fill:rgb(63,184,227);fill-rule:nonzero;"/>
        <path d="M1500.7,655.904L1376.66,754.767L1376.66,766.396L1515.29,655.904L1500.7,655.904Z" style="fill:rgb(63,184,227);fill-rule:nonzero;"/>
        <path d="M1709.91,546.258L1928.34,372.164C1926.8,369.517 1925.23,366.891 1923.63,364.285L1708.37,535.851C1709.06,539.262 1709.58,542.734 1709.91,546.258Z" style="fill:rgb(63,184,227);fill-rule:nonzero;"/>
        <path d="M1557.75,655.904L1376.66,800.234L1376.66,811.863L1572.34,655.904L1557.75,655.904Z" style="fill:rgb(63,184,227);fill-rule:nonzero;"/>
        <path d="M1614.94,655.784L1376.66,845.702L1376.66,857.331L1632.6,653.338C1626.88,654.663 1620.98,655.493 1614.94,655.784Z" style="fill:rgb(63,184,227);fill-rule:nonzero;"/>
        <path d="M1700.2,599.461L1944.97,404.375C1943.68,401.538 1942.35,398.719 1940.99,395.92L1706.61,582.725C1704.97,588.531 1702.81,594.126 1700.2,599.461Z" style="fill:rgb(63,184,227);fill-rule:nonzero;"/>
        <path d="M1955.43,429.873L1376.66,891.169L1376.66,902.798L1958.63,438.955C1957.6,435.911 1956.54,432.882 1955.43,429.873Z" style="fill:rgb(63,184,227);fill-rule:nonzero;"/>
        <path d="M1966.69,466.37L1376.66,936.636L1376.66,948.265L1969.01,476.149C1968.28,472.873 1967.5,469.614 1966.69,466.37Z" style="fill:rgb(63,184,227);fill-rule:nonzero;"/>
        <path d="M1974.32,505.751L1391.47,970.296L1397.96,976.753L1975.62,516.348C1975.24,512.801 1974.81,509.269 1974.32,505.751Z" style="fill:rgb(63,184,227);fill-rule:nonzero;"/>
        <path d="M1977.73,555.639C1977.73,553.276 1977.7,550.919 1977.65,548.566L1416.84,995.545L1423.33,1002L1977.68,560.175C1977.7,558.664 1977.73,557.154 1977.73,555.639Z" style="fill:rgb(63,184,227);fill-rule:nonzero;"/>
        <path d="M1975.45,595.789L1442.21,1020.79L1448.7,1027.25L1973.74,608.778C1974.39,604.471 1974.96,600.14 1975.45,595.789Z" style="fill:rgb(63,184,227);fill-rule:nonzero;"/>
        <path d="M1965.16,649.455L1467.58,1046.04L1474.07,1052.5L1960.66,664.671C1962.27,659.642 1963.77,654.57 1965.16,649.455Z" style="fill:rgb(63,184,227);fill-rule:nonzero;"/>
        <path d="M1708.68,909.91C1709.39,909.706 1710.1,909.485 1710.81,909.278L1929.93,734.633C1933.68,728.048 1937.23,721.341 1940.57,714.52L1492.94,1071.29L1499.43,1077.75L1709.27,910.5L1708.68,909.91Z" style="fill:rgb(63,184,227);fill-rule:nonzero;"/>
        <path d="M1728.15,929.296L1518.31,1096.54L1524.8,1103L1734.63,935.755L1728.15,929.296Z" style="fill:rgb(63,184,227);fill-rule:nonzero;"/>
        <path d="M1819.53,856.465C1831.13,848.242 1842.27,839.356 1852.89,829.873L1819.53,856.465Z" style="fill:rgb(63,184,227);fill-rule:nonzero;"/>
        <path d="M1753.51,954.55L1543.68,1121.79L1550.17,1128.25L1759.99,961.009L1753.51,954.55Z" style="fill:rgb(63,184,227);fill-rule:nonzero;"/>
        <path d="M1778.87,979.805L1569.05,1147.04L1575.54,1153.5L1785.35,986.264L1778.87,979.805Z" style="fill:rgb(63,184,227);fill-rule:nonzero;"/>
        <path d="M1804.23,1005.06L1594.41,1172.29L1600.9,1178.74L1810.71,1011.52L1804.23,1005.06Z" style="fill:rgb(63,184,227);fill-rule:nonzero;"/>
        <path d="M1829.59,1030.31L1619.78,1197.54L1626.27,1203.99L1836.07,1036.77L1829.59,1030.31Z" style="fill:rgb(63,184,227);fill-rule:nonzero;"/>
        <path d="M1854.95,1055.57L1645.15,1222.78L1651.64,1229.24L1861.43,1062.03L1854.95,1055.57Z" style="fill:rgb(63,184,227);fill-rule:nonzero;"/>
        <path d="M1880.31,1080.82L1670.52,1248.03L1677,1254.49L1886.79,1087.28L1880.31,1080.82Z" style="fill:rgb(63,184,227);fill-rule:nonzero;"/>
        <path d="M1905.67,1106.08L1695.88,1273.28L1702.37,1279.74L1912.15,1112.54L1905.67,1106.08Z" style="fill:rgb(63,184,227);fill-rule:nonzero;"/>
        <path d="M1931.03,1131.33L1721.25,1298.53L1727.74,1304.99L1937.51,1137.79L1931.03,1131.33Z" style="fill:rgb(63,184,227);fill-rule:nonzero;"/>
        <path d="M1956.39,1156.59L1746.97,1323.5C1749.28,1325.56 1751.62,1327.58 1753.98,1329.54L1962.87,1163.05L1956.39,1156.59Z" style="fill:rgb(63,184,227);fill-rule:nonzero;"/>
        <path d="M1981.75,1181.84L1775.95,1345.87C1778.62,1347.65 1781.33,1349.37 1784.05,1351.04L1988.23,1188.3L1981.75,1181.84Z" style="fill:rgb(63,184,227);fill-rule:nonzero;"/>
        <path d="M2007.11,1207.1L1809.32,1364.74C1812.42,1366.2 1815.54,1367.58 1818.67,1368.92L2013.59,1213.56L2007.11,1207.1Z" style="fill:rgb(63,184,227);fill-rule:nonzero;"/>
        <path d="M2032.47,1232.35L1848,1379.38C1851.62,1380.44 1855.25,1381.42 1858.9,1382.32L2038.95,1238.81L2032.47,1232.35Z" style="fill:rgb(63,184,227);fill-rule:nonzero;"/>
        <path d="M2057.83,1257.61L1893.72,1388.4C1898.12,1388.88 1902.54,1389.24 1906.95,1389.49L2064.31,1264.07L2057.83,1257.61Z" style="fill:rgb(63,184,227);fill-rule:nonzero;"/>
        <path d="M2083.19,1282.86L1950.86,1388.33C1956.81,1387.68 1962.74,1386.84 1968.65,1385.78L2089.67,1289.32L2083.19,1282.86Z" style="fill:rgb(63,184,227);fill-rule:nonzero;"/>
        <path d="M2108.55,1308.12L2041.46,1361.59C2066.64,1348.94 2090.3,1332.08 2111.41,1310.97L2108.55,1308.12Z" style="fill:rgb(63,184,227);fill-rule:nonzero;"/>
    </g>
</svg>
